# xmcd CD database file
#
# Track frame offsets:
#	150
#	14172
#	31917
#	46941
#	60967
#	81109
#	96444
#	116384
#	129841
#	146218
#	160842
#	181604
#	194897
#	209158
#	219768
#	235551
#	250048
#
# Disc length: 3527 seconds
#
# Revision: 3
# Processed by: cddbd v1.5.2PL0 Copyright (c) Steve Scherf et al.
# Submitted via: CDex 1.51
#
DISCID=e60dc511
DTITLE=Various Artist - SF-08
DYEAR=1900
DGENRE=Blues
TTITLE0=My Fair Lady - Get Me To The Church On Time
TTITLE1=My Fair Lady - I Could Have Dance All Night
TTITLE2=My Fair Lady - On The Street Where You Live
TTITLE3=Showboat - Can't Help Lovin' Dat Man
TTITLE4=Showboat - Old Man River
TTITLE5=Carousel - If I Loved You
TTITLE6=Carousel - You'll Never Walk Alone
TTITLE7=South Pacific - I'm Gonna Wash That Man
TTITLE8=South Pacific - Some Enchanted Evening
TTITLE9=Oklahoma - Oh What A Beautiful Morning
TTITLE10=Oklahoma - People Will Say We're In Love
TTITLE11=Sound Of Music The - Edelweiss
TTITLE12=Sound Of Music The - Climb Every Mountain
TTITLE13=Hello Dolly - Hello Dolly
TTITLE14=Funny Girl - People
TTITLE15=Sound Of Music The - The Sound Of Music
TTITLE16=Cabaret - Cabaret
EXTD=
EXTT0=
EXTT1=
EXTT2=
EXTT3=
EXTT4=
EXTT5=
EXTT6=
EXTT7=
EXTT8=
EXTT9=
EXTT10=
EXTT11=
EXTT12=
EXTT13=
EXTT14=
EXTT15=
EXTT16=
PLAYORDER=
